<?xml version="1.0" encoding="UTF-8" standalone="no"?>
<!-- Created with Inkscape (http://www.inkscape.org/) -->

<svg
   width="52.819023mm"
   height="24.883938mm"
   viewBox="0 0 52.819023 24.883938"
   version="1.1"
   id="svg5"
   inkscape:version="1.1.2 (0a00cf5339, 2022-02-04)"
   sodipodi:docname="sprites.svg"
   xmlns:inkscape="http://www.inkscape.org/namespaces/inkscape"
   xmlns:sodipodi="http://sodipodi.sourceforge.net/DTD/sodipodi-0.dtd"
   xmlns:xlink="http://www.w3.org/1999/xlink"
   xmlns="http://www.w3.org/2000/svg"
   xmlns:svg="http://www.w3.org/2000/svg">
  <sodipodi:namedview
     id="namedview7"
     pagecolor="#ffffff"
     bordercolor="#666666"
     borderopacity="1.0"
     inkscape:pageshadow="2"
     inkscape:pageopacity="0.0"
     inkscape:pagecheckerboard="0"
     inkscape:document-units="mm"
     showgrid="false"
     inkscape:zoom="12.121273"
     inkscape:cx="99.8245"
     inkscape:cy="47.024764"
     inkscape:window-width="3380"
     inkscape:window-height="1325"
     inkscape:window-x="30"
     inkscape:window-y="45"
     inkscape:window-maximized="1"
     inkscape:current-layer="svg5"
     fit-margin-top="0"
     fit-margin-left="0"
     fit-margin-right="0"
     fit-margin-bottom="0" />
  <defs
     id="defs2">
    <linearGradient
       inkscape:collect="always"
       id="linearGradient3274">
      <stop
         style="stop-color:#ffe680;stop-opacity:1;"
         offset="0"
         id="stop3270" />
      <stop
         style="stop-color:#ffe680;stop-opacity:0;"
         offset="1"
         id="stop3272" />
    </linearGradient>
    <filter
       inkscape:collect="always"
       style="color-interpolation-filters:sRGB"
       id="filter4762"
       x="-0.1018727"
       y="-0.1318047"
       width="1.2037454"
       height="1.2636094">
      <feGaussianBlur
         inkscape:collect="always"
         stdDeviation="0.86228673"
         id="feGaussianBlur4764" />
    </filter>
    <filter
       inkscape:collect="always"
       style="color-interpolation-filters:sRGB"
       id="filter4811"
       x="-0.13535869"
       y="-0.17512946"
       width="1.2707174"
       height="1.3502589">
      <feGaussianBlur
         inkscape:collect="always"
         stdDeviation="1.1457241"
         id="feGaussianBlur4813" />
    </filter>
    <linearGradient
       inkscape:collect="always"
       xlink:href="#linearGradient3274"
       id="linearGradient5152"
       gradientUnits="userSpaceOnUse"
       gradientTransform="matrix(3.7795276,0,0,3.7795276,-22.084387,-26.373411)"
       x1="20.209072"
       y1="26.637423"
       x2="26.998873"
       y2="26.637423" />
  </defs>
  <g
     inkscape:label="sprites"
     inkscape:groupmode="layer"
     id="layer1"
     transform="translate(-5.8431605,-6.9779648)"
     style="display:inline"
     sodipodi:insensitive="true">
    <path
       id="rect42798"
       style="fill:#32402e;fill-opacity:1;stroke-width:2.49606;stroke-linecap:round"
       d="M 40.330078,1.0351562 A 35.000001,35.000001 0 0 0 37.333984,1.0390625 35.000001,35.000001 0 0 0 21.5,5.6894531 35.000001,35.000001 0 0 0 4,36 V 61 H 74 V 36 h -4 a 31.000001,31.000001 0 0 0 -0.253906,-3.916016 31.000001,31.000001 0 0 0 -0.50586,-2.880859 31.000001,31.000001 0 0 0 -0.04297,-0.201172 31.000001,31.000001 0 0 0 -0.841797,-2.962891 31.000001,31.000001 0 0 0 -0.05273,-0.142578 31.000001,31.000001 0 0 0 -1.099609,-2.75 A 31.000001,31.000001 0 0 0 67.066406,22.857422 31.000001,31.000001 0 0 0 65.75,20.345703 31.000001,31.000001 0 0 0 65.576172,20.050781 31.000001,31.000001 0 0 0 63.96875,17.636719 a 31.000001,31.000001 0 0 0 -0.126953,-0.175781 31.000001,31.000001 0 0 0 -1.957031,-2.371094 31.000001,31.000001 0 0 0 -0.0293,-0.03516 31.000001,31.000001 0 0 0 -0.0332,-0.0332 A 31.000001,31.000001 0 0 0 59.65625,12.888672 31.000001,31.000001 0 0 0 59.427734,12.691406 31.000001,31.000001 0 0 0 57.228516,10.933594 31.000001,31.000001 0 0 0 56.904297,10.703125 31.000001,31.000001 0 0 0 54.550781,9.1914062 31.000001,31.000001 0 0 0 54.257812,9.0214844 31.000001,31.000001 0 0 0 51.59375,7.6757812 31.000001,31.000001 0 0 0 51.49609,7.6308592 31.000001,31.000001 0 0 0 48.605465,6.5273436 a 31.000001,31.000001 0 0 0 -0.205078,-0.0625 31.000001,31.000001 0 0 0 -2.822266,-0.7539063 31.000001,31.000001 0 0 0 -3.876953,-0.59375 l 0.34375,-3.9355469 a 35.000001,35.000001 0 0 0 -1.71484,-0.1464842 z"
       transform="matrix(0.26458333,0,0,0.26458333,5.8431605,6.9779648)" />
    <rect
       style="fill:#32402e;stroke-width:0.406331;stroke-linecap:round"
       id="rect950"
       width="14.552083"
       height="3.175"
       x="6.9014935"
       y="24.969643" />
    <text
       xml:space="preserve"
       style="font-size:0.51462px;line-height:1.25;font-family:sans-serif;display:inline;stroke-width:0.128655"
       x="4.0627961"
       y="23.776241"
       id="text6282-5-1-6"
       transform="translate(5.8431606,6.9779649)"><tspan
         sodipodi:role="line"
         id="tspan6280-0-1-2"
         style="font-size:0.51462px;stroke-width:0.128655"
         x="4.0627961"
         y="23.776241">For strut info, see layer &quot;struts&quot;</tspan></text>
    <path
       id="path2094"
       style="fill:#e0dcbf;stroke-width:0.412388;stroke-linecap:round"
       d="M 41.70092,7.9742879 A 11.90625,11.90625 0 0 1 44.941549,16.137612 11.90625,11.90625 0 0 1 33.0353,28.043862 11.90625,11.90625 0 0 1 28.921855,27.303857 11.90625,11.90625 0 0 0 37.593161,31.055048 11.90625,11.90625 0 0 0 49.499411,19.148798 11.90625,11.90625 0 0 0 41.70092,7.9742879 Z" />
    <g
       id="g10195"
       transform="matrix(0.99507725,0,0,0.9809439,-1.1818575,0.32640833)"
       style="display:inline">
      <path
         id="path2394-3-4"
         style="mix-blend-mode:normal;fill:url(#linearGradient5152);fill-opacity:1;stroke-width:2.89716;stroke-linecap:round;filter:url(#filter4811)"
         d="m 67.126953,66.453125 a 12.831118,7.8503847 0 0 0 -12.830078,7.849609 12.831118,7.8503847 0 0 0 12.830078,7.851563 12.831118,7.8503847 0 0 0 7.482422,-1.474609 11.281558,8.7828484 0 0 1 -3.533203,-6.376954 11.281558,8.7828484 0 0 1 3.535156,-6.375 12.831118,7.8503847 0 0 0 -7.484375,-1.474609 z"
         transform="matrix(0.28147756,0,0,0.27989577,37.3992,5.9430248)" />
      <path
         id="path2394-3"
         style="mix-blend-mode:normal;fill:#ffeeaa;fill-opacity:1;stroke-width:2.89716;stroke-linecap:round;filter:url(#filter4762)"
         d="m 67.126953,66.453125 a 12.831118,7.8503846 0 0 0 -12.830078,7.849609 12.831118,7.8503846 0 0 0 12.830078,7.851563 12.831118,7.8503846 0 0 0 7.482422,-1.474609 11.281558,8.7828483 0 0 1 -2.806641,-3.298829 7.4167375,3.470344 0 0 1 -3.429687,0.392579 7.4167375,3.470344 0 0 1 -7.416016,-3.470704 7.4167375,3.470344 0 0 1 7.416016,-3.46875 7.4167375,3.470344 0 0 1 3.427734,0.392578 11.281558,8.7828483 0 0 1 2.810547,-3.298828 12.831118,7.8503846 0 0 0 -7.484375,-1.474609 z"
         transform="matrix(0.19346569,0,0,0.1887927,41.093725,12.712321)" />
    </g>
    <ellipse
       style="display:inline;opacity:1;fill:#ffde50;fill-opacity:1;stroke-width:0.383973;stroke-linecap:round"
       id="path14767"
       cx="51.351494"
       cy="9.3592148"
       rx="1.5875"
       ry="2.1166666" />
    <ellipse
       style="display:inline;fill:#ff5555;fill-opacity:1;stroke-width:0.17959;stroke-linecap:round"
       id="path14767-2-4"
       cx="49.477116"
       cy="6.2177081"
       rx="0.79377437"
       ry="0.92604166"
       transform="translate(5.8431605,6.9779648)" />
    <ellipse
       style="display:inline;fill:#ff9955;fill-opacity:1;stroke-width:0.287979;stroke-linecap:round"
       id="path14767-2"
       cx="49.873959"
       cy="1.8520834"
       rx="1.190625"
       ry="1.5874999"
       transform="translate(5.8431605,6.9779648)" />
    <circle
       style="display:inline;fill:#00ffff;fill-opacity:1;stroke-width:0.110844;stroke-linecap:round"
       id="path14767-2-4-8"
       cx="56.114048"
       cy="17.561298"
       r="0.52916664" />
    <text
       xml:space="preserve"
       style="font-size:1.5875px;line-height:1.25;font-family:sans-serif;stroke-width:0.264583"
       x="56.500084"
       y="17.396879"
       id="text2818"><tspan
         sodipodi:role="line"
         id="tspan2816"
         style="stroke-width:0.264583"
         x="56.500084"
         y="17.396879"></tspan></text>
  </g>
  <g
     inkscape:groupmode="layer"
     id="layer2"
     inkscape:label="struts"
     style="display:inline"
     sodipodi:insensitive="true">
    <rect
       style="fill:#ff00ff;stroke-width:0.0988206;stroke-linecap:round"
       id="rect1113"
       width="18.520834"
       height="0.26458332"
       x="6.901494"
       y="23.117552"
       transform="translate(-5.8431607,-6.977965)" />
    <rect
       style="fill:#ff00ff;stroke-width:0.0914901;stroke-linecap:round"
       id="rect1113-8"
       width="15.875"
       height="0.26458332"
       x="7.2425528"
       y="-6.901494"
       transform="rotate(90,0.56740216,-6.4105628)" />
    <rect
       style="fill:#ff00ff;stroke-width:0.0988206;stroke-linecap:round"
       id="rect1113-6"
       width="18.520834"
       height="0.26458332"
       x="6.901494"
       y="6.9779654"
       transform="translate(-5.8431607,-6.977965)" />
    <rect
       style="fill:#ff00ff;stroke-width:0.100833;stroke-linecap:round"
       id="rect1113-9"
       width="0.79374999"
       height="0.26458359"
       x="5.8431606"
       y="23.117552"
       transform="translate(-5.8431607,-6.977965)" />
    <rect
       style="fill:#ff00ff;stroke-width:0.112052;stroke-linecap:round"
       id="rect1113-6-0"
       width="23.8125"
       height="0.26458332"
       x="19.843752"
       y="-1.2191772e-07" />
    <rect
       style="fill:#ff00ff;stroke-width:0.112052;stroke-linecap:round"
       id="rect1113-6-0-3"
       width="23.8125"
       height="0.26458332"
       x="7.242548"
       y="-54.261909"
       transform="rotate(90,-1.6815551,-8.6595201)" />
    <rect
       style="fill:#ff00ff;stroke-width:0.112052;stroke-linecap:round"
       id="rect1113-6-0-0"
       width="23.8125"
       height="0.26458332"
       x="30.184828"
       y="31.055048"
       transform="translate(-10.341075,-6.977965)" />
    <rect
       style="fill:#ff00ff;stroke-width:0.112052;stroke-linecap:round"
       id="rect1113-6-0-3-3"
       width="23.8125"
       height="0.26458332"
       x="7.242548"
       y="-30.184826"
       transform="rotate(90,-1.6815551,-8.6595201)" />
    <rect
       style="fill:#ff00ff;stroke-width:0.087595;stroke-linecap:round"
       id="rect1113-8-9-6"
       width="14.552083"
       height="0.26458332"
       x="1.0583328"
       y="17.727095" />
    <rect
       style="fill:#ff00ff;stroke-width:0.0409157;stroke-linecap:round"
       id="rect1113-6-3-5"
       width="3.175"
       height="0.26458332"
       x="-28.144642"
       y="6.6369104"
       transform="rotate(-90,-6.4105628,-0.5674021)" />
    <rect
       style="fill:#ff00ff;stroke-width:0.087595;stroke-linecap:round"
       id="rect1113-8-9-6-1"
       width="14.552083"
       height="0.26458332"
       x="1.0583328"
       y="21.166677" />
    <rect
       style="fill:#ff00ff;stroke-width:0.130177;stroke-linecap:round"
       id="rect1113-9-7"
       width="1.3229166"
       height="0.26458359"
       x="-24.705059"
       y="6.6369109"
       transform="rotate(-90,-6.4105628,-0.5674021)" />
    <text
       xml:space="preserve"
       style="font-size:0.51462px;line-height:1.25;font-family:sans-serif;stroke-width:0.128655"
       x="9.9873133"
       y="16.786114"
       id="text6282"><tspan
         sodipodi:role="line"
         id="tspan6280"
         style="font-size:0.51462px;stroke-width:0.128655"
         x="9.9873133"
         y="16.786114">70</tspan></text>
    <text
       xml:space="preserve"
       style="font-size:0.51462px;line-height:1.25;font-family:sans-serif;stroke-width:0.128655"
       x="0.1730902"
       y="8.3894167"
       id="text6282-5"><tspan
         sodipodi:role="line"
         id="tspan6280-0"
         style="font-size:0.51462px;stroke-width:0.128655"
         x="0.1730902"
         y="8.3894167">60</tspan></text>
    <text
       xml:space="preserve"
       style="font-size:0.51462px;line-height:1.25;font-family:sans-serif;stroke-width:0.128655"
       x="0.23417179"
       y="16.786116"
       id="text6282-84"><tspan
         sodipodi:role="line"
         id="tspan6280-8"
         style="font-size:0.51462px;stroke-width:0.128655"
         x="0.23417179"
         y="16.786116">3</tspan></text>
    <text
       xml:space="preserve"
       style="font-size:0.51462px;line-height:1.25;font-family:sans-serif;stroke-width:0.128655"
       x="31.423462"
       y="24.72361"
       id="text6282-8-4"><tspan
         sodipodi:role="line"
         id="tspan6280-5-4"
         style="font-size:0.51462px;stroke-width:0.128655"
         x="31.423462"
         y="24.72361">90</tspan></text>
    <text
       xml:space="preserve"
       style="font-size:0.51462px;line-height:1.25;font-family:sans-serif;stroke-width:0.128655"
       x="43.88842"
       y="12.358162"
       id="text6282-8-44"><tspan
         sodipodi:role="line"
         id="tspan6280-5-7"
         style="font-size:0.51462px;stroke-width:0.128655"
         x="43.88842"
         y="12.358162">90</tspan></text>
    <rect
       style="fill:#ff00ff;stroke-width:0.0409157;stroke-linecap:round"
       id="rect1113-6-3"
       width="3.175"
       height="0.26458332"
       x="-21.166677"
       y="15.610416"
       transform="rotate(-90)" />
    <text
       xml:space="preserve"
       style="font-size:0.51462px;line-height:1.25;font-family:sans-serif;stroke-width:0.128655"
       x="15.818461"
       y="19.770149"
       id="text6282-8"><tspan
         sodipodi:role="line"
         id="tspan6280-5"
         style="font-size:0.51462px;stroke-width:0.128655"
         x="15.818461"
         y="19.770149">12</tspan></text>
    <text
       xml:space="preserve"
       style="font-size:0.51462px;line-height:1.25;font-family:sans-serif;stroke-width:0.128655"
       x="8.0095959"
       y="21.806421"
       id="text6282-5-1"><tspan
         sodipodi:role="line"
         id="tspan6280-0-1"
         style="font-size:0.51462px;stroke-width:0.128655"
         x="8.0095959"
         y="21.806421">55</tspan></text>
    <text
       xml:space="preserve"
       style="font-size:0.51462px;line-height:1.25;font-family:sans-serif;stroke-width:0.128655"
       x="1.0186317"
       y="17.252966"
       id="text6282-84-5"><tspan
         sodipodi:role="line"
         id="tspan6280-8-9"
         style="font-size:0.51462px;stroke-width:0.128655"
         x="1.0186317"
         y="17.252966">5</tspan></text>
    <rect
       style="display:inline;fill:#ff00ff;stroke-width:0.0554001;stroke-linecap:round"
       id="rect1113-6-3-3"
       width="5.8208332"
       height="0.26458332"
       x="-22.489613"
       y="51.858288"
       transform="rotate(-90)" />
    <rect
       style="display:inline;fill:#ff00ff;stroke-width:0.0646932;stroke-linecap:round"
       id="rect1113-8-9-6-8"
       width="7.9375"
       height="0.26458332"
       x="43.920834"
       y="16.404167" />
    <rect
       style="display:inline;fill:#ff00ff;stroke-width:0.0646933;stroke-linecap:round"
       id="rect1113-8-9-6-1-3"
       width="7.9375"
       height="0.26458332"
       x="43.920834"
       y="22.489643" />
    <text
       xml:space="preserve"
       style="font-size:0.51462px;line-height:1.25;font-family:sans-serif;display:inline;stroke-width:0.128655"
       x="52.085178"
       y="19.770168"
       id="text6282-8-1"><tspan
         sodipodi:role="line"
         id="tspan6280-5-8"
         style="font-size:0.51462px;stroke-width:0.128655"
         x="52.085178"
         y="19.770168">22</tspan></text>
    <text
       xml:space="preserve"
       style="font-size:0.51462px;line-height:1.25;font-family:sans-serif;display:inline;stroke-width:0.128655"
       x="47.559654"
       y="23.136171"
       id="text6282-5-1-9"><tspan
         sodipodi:role="line"
         id="tspan6280-0-1-6"
         style="font-size:0.51462px;stroke-width:0.128655"
         x="47.559654"
         y="23.136171">30</tspan></text>
    <rect
       style="display:inline;fill:#ff00ff;stroke-width:0.0409156;stroke-linecap:round"
       id="rect1113-6-0-4"
       width="3.175"
       height="0.26458332"
       x="43.920834"
       y="1.078846e-07" />
    <rect
       style="display:inline;fill:#ff00ff;stroke-width:0.0472453;stroke-linecap:round"
       id="rect1113-6-0-4-88"
       width="4.2333331"
       height="0.26458332"
       x="0.26458344"
       y="-47.360416"
       transform="rotate(90)" />
    <text
       xml:space="preserve"
       style="font-size:0.51462px;line-height:1.25;font-family:sans-serif;display:inline;stroke-width:0.128655"
       x="47.303879"
       y="2.5685787"
       id="text6282-8-44-9"><tspan
         sodipodi:role="line"
         id="tspan6280-5-7-7"
         style="font-size:0.51462px;stroke-width:0.128655"
         x="47.303879"
         y="2.5685787">16</tspan></text>
    <rect
       style="display:inline;fill:#ff00ff;stroke-width:0.035434;stroke-linecap:round"
       id="rect1113-6-0-4-8"
       width="2.3812499"
       height="0.26458332"
       x="48.683334"
       y="1.078846e-07" />
    <g
       id="g20776"
       transform="translate(0,-8.995834)">
      <rect
         style="display:inline;fill:#ff00ff;stroke-width:0.0409156;stroke-linecap:round"
         id="rect1113-6-0-4-7-0"
         width="3.175"
         height="0.26458332"
         x="43.920834"
         y="13.493751" />
      <text
         xml:space="preserve"
         style="font-size:0.51462px;line-height:1.25;font-family:sans-serif;display:inline;stroke-width:0.128655"
         x="45.168854"
         y="14.140279"
         id="text6282-8-44-9-4-0-0"><tspan
           sodipodi:role="line"
           id="tspan6280-5-7-7-3-9-5"
           style="font-size:0.51462px;stroke-width:0.128655"
           x="45.168854"
           y="14.140279">12</tspan></text>
    </g>
    <rect
       style="display:inline;fill:#ff00ff;stroke-width:0.0409156;stroke-linecap:round"
       id="rect1113-6-0-4-88-6"
       width="3.175"
       height="0.26458332"
       x="0.26458344"
       y="-51.32917"
       transform="rotate(90)" />
    <rect
       style="display:inline;fill:#ff00ff;stroke-width:0.0409156;stroke-linecap:round"
       id="rect1113-6-0-4-88-6-9"
       width="3.175"
       height="0.26458332"
       x="0.26458344"
       y="-48.683334"
       transform="rotate(90)" />
    <text
       xml:space="preserve"
       style="font-size:0.51462px;line-height:1.25;font-family:sans-serif;display:inline;stroke-width:0.128655"
       x="51.272633"
       y="2.0430558"
       id="text6282-8-44-9-4"><tspan
         sodipodi:role="line"
         id="tspan6280-5-7-7-3"
         style="font-size:0.51462px;stroke-width:0.128655"
         x="51.272633"
         y="2.0430558">12</tspan></text>
    <rect
       style="display:inline;fill:#ff00ff;stroke-width:0.035434;stroke-linecap:round"
       id="rect1113-6-0-4-7"
       width="2.3812499"
       height="0.26458332"
       x="48.683334"
       y="3.4395833" />
    <text
       xml:space="preserve"
       style="font-size:0.51462px;line-height:1.25;font-family:sans-serif;display:inline;stroke-width:0.128655"
       x="49.712135"
       y="4.0861111"
       id="text6282-8-44-9-4-0-4"><tspan
         sodipodi:role="line"
         id="tspan6280-5-7-7-3-9-7"
         style="font-size:0.51462px;stroke-width:0.128655"
         x="49.712135"
         y="4.0861111">9</tspan></text>
    <text
       xml:space="preserve"
       style="font-size:0.514628px;line-height:1.25;font-family:sans-serif;display:inline;stroke-width:0.128657"
       x="49.310886"
       y="7.7903981"
       id="text6282-8-44-9-4-0"
       transform="scale(1.0000153,0.99998465)"><tspan
         sodipodi:role="line"
         id="tspan6280-5-7-7-3-9"
         style="font-size:0.514628px;stroke-width:0.128657"
         x="49.310886"
         y="7.7903981">6</tspan></text>
    <rect
       style="display:inline;fill:#ff00ff;stroke-width:0.0289322;stroke-linecap:round"
       id="rect1113-6-0-4-88-6-3-6"
       width="0.26458332"
       height="1.5875487"
       x="7.1437502"
       y="-50.270893"
       transform="rotate(90)" />
    <rect
       style="display:inline;fill:#ff00ff;stroke-width:0.0312503;stroke-linecap:round"
       id="rect1113-6-0-4-88-6-3-9"
       width="1.8520833"
       height="0.26459146"
       x="5.291667"
       y="-48.683342"
       transform="rotate(90)" />
    <rect
       style="display:inline;fill:#ff00ff;stroke-width:0.0289322;stroke-linecap:round"
       id="rect1113-6-0-4-88-6-3-6-2"
       width="0.26458332"
       height="1.5875487"
       x="5.0270834"
       y="-50.270889"
       transform="rotate(90)" />
    <rect
       style="display:inline;fill:#ff00ff;stroke-width:0.0312503;stroke-linecap:round"
       id="rect1113-6-0-4-88-6-3-9-2"
       width="1.8520833"
       height="0.26459146"
       x="5.2916665"
       y="-50.53548"
       transform="rotate(90)" />
    <text
       xml:space="preserve"
       style="font-size:0.514628px;line-height:1.25;font-family:sans-serif;display:inline;stroke-width:0.128657"
       x="50.492489"
       y="6.4053864"
       id="text6282-8-44-9-4-0-7"
       transform="scale(1.0000153,0.99998465)"><tspan
         sodipodi:role="line"
         style="font-size:0.514628px;stroke-width:0.128657"
         x="50.492489"
         y="6.4053864"
         id="tspan21467">7</tspan></text>
    <rect
       style="display:inline;fill:#ff00ff;stroke-width:0.023623;stroke-linecap:round"
       id="rect1113-6-0-4-88-6-3-9-2-3"
       width="1.0583333"
       height="0.26459146"
       x="10.054167"
       y="-51.064644"
       transform="rotate(90)" />
    <rect
       style="display:inline;fill:#ff00ff;stroke-width:0.0236227;stroke-linecap:round"
       id="rect1113-6-0-4-88-6-3-9-2-3-9"
       width="1.0583333"
       height="0.26458332"
       x="10.054167"
       y="-49.741714"
       transform="rotate(90)" />
    <rect
       style="display:inline;fill:#ff00ff;stroke-width:0.0236227;stroke-linecap:round"
       id="rect1113-6-0-4-88-6-3-9-2-3-0"
       width="1.0583333"
       height="0.26458332"
       x="-50.800056"
       y="-11.377084"
       transform="scale(-1)" />
    <rect
       style="display:inline;fill:#ff00ff;stroke-width:0.023623;stroke-linecap:round"
       id="rect1113-6-0-4-88-6-3-9-2-3-8"
       width="1.0583333"
       height="0.26459146"
       x="-50.800056"
       y="-10.054167"
       transform="scale(-1)" />
    <text
       xml:space="preserve"
       style="font-size:0.514628px;line-height:1.25;font-family:sans-serif;display:inline;stroke-width:0.128657"
       x="50.108295"
       y="11.752423"
       id="text6282-8-44-9-4-0-09"
       transform="scale(1.0000153,0.9999847)"><tspan
         sodipodi:role="line"
         id="tspan6280-5-7-7-3-9-6"
         style="font-size:0.514628px;stroke-width:0.128657"
         x="50.108295"
         y="11.752423">4</tspan></text>
    <text
       xml:space="preserve"
       style="font-size:0.514628px;line-height:1.25;font-family:sans-serif;display:inline;stroke-width:0.128657"
       x="51.038734"
       y="10.77447"
       id="text6282-8-44-9-4-0-09-8"
       transform="scale(1.0000153,0.9999847)"><tspan
         sodipodi:role="line"
         id="tspan6280-5-7-7-3-9-6-5"
         style="font-size:0.514628px;stroke-width:0.128657"
         x="51.038734"
         y="10.77447">4</tspan></text>
  </g>
</svg>
